<svg width="36px" height="36px" viewBox="0 0 5.76 5.76" xmlns="http://www.w3.org/2000/svg" xmlns:xlink="http://www.w3.org/1999/xlink" aria-hidden="true" role="img" class="iconify iconify--noto" preserveAspectRatio="xMidYMid meet">
  <path d="M2.769 4.037s0.084 0.358 0.55 0.625c0.294 0.168 0.912 0.342 1.227 0.109 0.359 -0.266 0.436 -0.528 0.454 -0.625 0.017 -0.097 -0.034 -0.364 -0.034 -0.364l-0.591 -0.21s-0.977 0.238 -0.994 0.238c-0.017 0 -0.612 0.227 -0.612 0.227z" fill="#e06767"/>
  <path d="M4.968 4.26c0.013 -0.034 0.021 -0.063 0.027 -0.086 -0.104 -0.028 -0.225 -0.073 -0.335 -0.12 0.009 -0.004 0.018 -0.008 0.027 -0.013 0.054 -0.027 0.107 -0.059 0.145 -0.106 0.041 -0.05 0.06 -0.116 0.058 -0.181l-0.514 -0.183s-0.977 0.238 -0.994 0.238c-0.017 0 -0.612 0.226 -0.612 0.227 -0.008 0.003 0.055 0.135 0.059 0.142 0.057 0.107 0.189 0.255 0.279 0.336 0 0 -0.041 -0.095 0.037 -0.131 0.035 -0.016 0.076 -0.008 0.112 0.006 0.089 0.036 0.201 0.172 0.48 0.319 0.189 0.1 0.384 0.176 0.447 0.174 0.084 -0.004 0.237 -0.045 0.237 -0.045s-0.194 -0.018 -0.507 -0.164c-0.095 -0.044 -0.444 -0.216 -0.477 -0.312 -0.009 -0.027 -0.043 -0.075 0.018 -0.102 0.094 -0.042 0.349 0.178 0.568 0.279a6.451 6.451 0 0 0 0.545 0.216c0.031 -0.023 0.059 -0.047 0.086 -0.07a2.828 2.828 0 0 1 -0.425 -0.148 2.409 2.409 0 0 1 -0.395 -0.221c-0.079 -0.054 -0.133 -0.145 -0.049 -0.157 0.139 -0.019 0.318 0.112 0.497 0.206 0.162 0.084 0.356 0.123 0.539 0.146 0.023 -0.029 0.062 -0.085 0.062 -0.085s-0.069 -0.012 -0.272 -0.057c-0.089 -0.02 -0.175 -0.045 -0.255 -0.09 -0.021 -0.012 -0.093 -0.086 0.006 -0.12s0.193 0.034 0.342 0.068c0.15 0.036 0.263 0.037 0.264 0.034z" fill="#b05353"/>
  <path d="M5.31 2.398s-0.011 -0.364 -0.207 -0.687c-0.169 -0.278 -0.409 -0.306 -0.409 -0.306s-0.048 -0.175 -0.215 -0.309 -0.512 -0.246 -0.512 -0.246c-0.689 -0.31 -1.119 -0.056 -1.119 -0.056s-1.022 -0.243 -1.841 0.451c0 0 -0.413 0.194 -0.582 0.562 -0.093 0.203 -0.053 0.535 -0.053 0.535 -0.287 0.333 -0.208 0.86 0.114 1.125 0.153 0.126 0.343 0.209 0.54 0.23 0.077 0.008 0.117 -0.01 0.149 0.068 0.048 0.116 0.085 0.235 0.181 0.319a1.086 1.086 0 0 0 0.333 0.195c0.235 0.087 0.5 0.096 0.738 0.011 0.079 -0.028 0.331 -0.031 0.331 -0.031s0.134 0.11 0.608 0.093 0.675 -0.222 0.783 -0.261c0.083 -0.029 0.185 -0.094 0.276 -0.077 0.052 0.009 0.098 0.036 0.145 0.058 0.132 0.063 0.281 0.098 0.427 0.085 0.551 -0.051 0.609 -0.686 0.555 -1.122 -0.055 -0.441 -0.241 -0.636 -0.241 -0.636z" fill="#ffb3b3"/>
  <path d="M1.238 3.26c-0.011 0.026 -0.124 0.271 -0.218 0.311 -0.163 0.069 -0.416 -0.095 -0.513 -0.14 -0.019 -0.009 -0.032 0.013 -0.032 0.013 -0.016 0.02 0.025 0.062 0.046 0.077 0.08 0.058 0.272 0.188 0.415 0.224 0.184 0.046 0.322 0 0.322 0s0.05 -0.369 0.054 -0.385 0 -0.163 0 -0.163l-0.075 0.063z" fill="#ea6363"/>
  <path d="M2.846 4.3s-0.093 -0.014 -0.235 -0.012c-0.142 0.002 -0.342 0.043 -0.342 0.043s0.141 -0.064 0.204 -0.121c0.063 -0.057 0.076 -0.194 0.065 -0.276 -0.011 -0.084 -0.039 -0.126 -0.253 -0.171l0.642 -0.036c-0.215 0.143 -0.254 0.438 -0.081 0.572z" fill="#f07371"/>
  <path d="M4.789 2.946a0.485 0.485 0 0 1 -0.316 -0.063 0.072 0.072 0 0 1 -0.009 -0.117 0.073 0.073 0 0 1 0.088 -0.004c0.156 0.102 0.314 0.035 0.399 -0.018 0.216 -0.135 0.323 -0.373 0.309 -0.623 0.043 0.076 0.075 0.161 0.082 0.248 0.019 0.212 -0.133 0.377 -0.304 0.484a0.618 0.618 0 0 1 -0.248 0.093z" fill="#f07371"/>
  <path d="M5.271 3.157c-0.049 0 -0.101 -0.01 -0.151 -0.041 -0.051 -0.032 -0.08 -0.074 -0.106 -0.126 -0.021 -0.043 -0.051 -0.069 -0.105 -0.065 -0.038 0.003 -0.075 0.025 -0.113 0.019 0.051 -0.09 0.132 -0.162 0.228 -0.201 0.044 -0.018 0.094 -0.029 0.139 -0.015 0.005 0.032 -0.016 0.061 -0.028 0.09 -0.021 0.053 -0.013 0.116 0.022 0.161 0.023 0.031 0.068 0.063 0.109 0.061 0.027 -0.002 0.046 -0.025 0.072 -0.027 0.082 -0.006 0.103 0.115 0.022 0.134a0.375 0.375 0 0 1 -0.088 0.011z" fill="#f07371"/>
  <path d="M4.479 1.489c-0.033 0.004 -0.066 0 -0.083 -0.028a0.068 0.068 0 0 1 0.037 -0.099c0.113 -0.04 0.24 -0.032 0.35 0.012 0.096 0.039 0.154 0.104 0.193 0.149 0.038 0.045 0.064 0.133 0.064 0.133 -0.096 -0.083 -0.15 -0.214 -0.561 -0.167z" fill="#f07371"/>
  <path d="M4.048 1.402c-0.097 -0.004 -0.003 0 -0.004 0 -0.154 0 -0.338 -0.053 -0.363 -0.229 -0.045 -0.319 0.427 -0.195 0.6 -0.171 0 0 -0.136 -0.14 -0.315 -0.152 -0.083 -0.005 -0.169 -0.003 -0.25 0.018 -0.089 0.024 -0.134 0.091 -0.215 0.124 -0.061 0.025 -0.131 0.015 -0.194 -0.004 -0.058 -0.018 -0.247 -0.119 -0.252 0.007a0.067 0.067 0 0 0 0.057 0.069c0.137 0.019 0.326 0.081 0.396 0.211 0.032 0.06 0.04 0.132 0.021 0.198 -0.009 0.032 -0.022 0.073 0.004 0.093 0.02 0.016 0.051 0.005 0.07 -0.013s0.03 -0.042 0.049 -0.06c0.058 -0.057 0.11 -0.016 0.171 0.005 0.071 0.025 0.145 0.037 0.221 0.037 0.002 0 -0.132 -0.013 0.005 0 0.136 0.013 0.096 -0.131 -0.001 -0.135z" fill="#f07371"/>
  <path d="M1.885 1.255c-0.075 -0.068 -0.11 -0.33 0.104 -0.466 0 0 -0.117 0.004 -0.215 0.081 -0.083 0.065 -0.1 0.178 -0.08 0.297a0.048 0.048 0 0 1 -0.05 0.057 0.682 0.682 0 0 0 -0.319 0.058 0.068 0.068 0 0 0 -0.027 0.097 0.068 0.068 0 0 0 0.086 0.024c0.108 -0.05 0.264 -0.076 0.39 -0.045 0.127 0.032 0.217 0.069 0.317 0.242 0.017 0.029 0.054 0.04 0.082 0.021a0.058 0.058 0 0 0 0.022 -0.067c-0.085 -0.236 -0.209 -0.209 -0.31 -0.3z" fill="#f07371"/>
  <path d="M2.164 2.065a0.067 0.067 0 0 0 -0.084 -0.046c-0.108 0.032 -0.264 0.023 -0.334 -0.047 -0.093 -0.216 -0.164 -0.254 -0.277 -0.292 -0.045 -0.015 -0.09 0.023 -0.085 0.07a0.065 0.065 0 0 0 0.046 0.057c0.08 0.024 0.161 0.131 0.202 0.241 0.038 0.099 0.042 0.23 -0.043 0.324 -0.022 0.024 -0.027 0.059 -0.007 0.086l0.001 0.001a0.067 0.067 0 0 0 0.103 0.006c0.031 -0.033 0.063 -0.076 0.076 -0.12 0.014 -0.046 0.01 -0.088 0.05 -0.125 0.045 -0.041 0.087 -0.033 0.14 -0.033 0.055 0 0.114 -0.02 0.166 -0.038 0.035 -0.011 0.058 -0.049 0.047 -0.084z" fill="#f07371"/>
  <path d="M0.784 2.676c-0.015 0 -0.03 0 -0.046 -0.002 -0.208 -0.018 -0.318 -0.168 -0.367 -0.332s-0.008 -0.343 -0.008 -0.343c0.063 0.486 0.316 0.534 0.387 0.54 0.133 0.012 0.26 -0.046 0.294 -0.134 0.055 -0.139 -0.113 -0.275 -0.196 -0.359 -0.054 -0.056 -0.075 -0.151 -0.06 -0.226 0.007 -0.039 0.024 -0.076 0.056 -0.101 0.032 -0.024 0.111 -0.046 0.1 0.023 -0.003 0.022 -0.017 0.04 -0.026 0.059 -0.062 0.14 0.158 0.27 0.217 0.374 0.049 0.084 0.071 0.186 0.034 0.279 -0.052 0.132 -0.21 0.221 -0.386 0.221z" fill="#f07371"/>
  <path d="M0.736 2.64c0.036 0.004 0.074 -0.002 0.107 -0.018 0.032 -0.015 0.06 -0.04 0.095 -0.042 0.017 -0.001 0.037 0.009 0.035 0.025 -0.001 0.006 0.037 0.017 0.032 0.02 -0.09 0.056 -0.316 0.111 -0.16 0.513a0.069 0.069 0 0 1 -0.027 0.085 0.067 0.067 0 0 1 -0.096 -0.029 0.709 0.709 0 0 1 -0.062 -0.301c0.001 -0.101 0.012 -0.189 -0.056 -0.273 -0.007 -0.009 -0.015 -0.021 -0.009 -0.03 0.004 -0.006 0.011 -0.008 0.018 -0.01 0.028 -0.007 0.058 -0.015 0.086 -0.009 0.013 0.003 0.153 0.081 0.155 0.078" fill="#f07371"/>
  <path d="M4.75 3.289c-0.093 -0.011 -0.189 -0.004 -0.277 0.029 -0.075 0.028 -0.131 0.085 -0.216 0.067a0.227 0.227 0 0 1 -0.129 -0.086c-0.068 -0.088 -0.058 -0.18 -0.033 -0.28 0.025 -0.099 0.022 -0.214 -0.022 -0.307a0.105 0.105 0 0 0 -0.057 -0.056c-0.026 -0.009 -0.058 -0.001 -0.073 0.022 -0.015 0.023 -0.009 0.054 -0.004 0.082 0.018 0.084 0.04 0.175 0.015 0.257 -0.024 0.078 -0.057 0.148 -0.113 0.209 -0.107 0.115 -0.261 0.167 -0.395 0.134 -0.099 -0.025 -0.178 -0.094 -0.232 -0.199 -0.019 -0.082 -0.039 -0.189 -0.141 -0.201 -0.021 -0.002 -0.043 0.001 -0.059 0.014a0.073 0.073 0 0 0 -0.023 0.056c0 0.052 0.05 0.09 0.058 0.141 0.028 0.156 -0.075 0.334 -0.232 0.42 -0.121 0.067 -0.455 0.105 -0.754 -0.146 -0.013 -0.011 -0.013 -0.032 -0.025 -0.043a0.059 0.059 0 0 0 -0.029 -0.013c-0.045 -0.009 -0.091 0.034 -0.087 0.079 0.004 0.041 0.037 0.072 0.068 0.1 0.078 0.073 0.043 0.102 0.03 0.141 -0.003 0.01 -0.009 0.019 -0.01 0.029 -0.003 0.029 0.041 0.019 0.07 0.017s0.055 -0.018 0.083 -0.026c0.035 -0.01 0.196 0.049 0.227 0.056 0.091 0.02 0.123 0.029 0.202 0.029 0.099 0 0.182 0.051 0.254 -0.017 0.103 -0.096 0.182 -0.158 0.273 -0.189 0.045 -0.015 0.099 -0.023 0.137 0.006 0.027 0.021 0.039 0.055 0.049 0.088 0.019 0.067 0.034 0.135 0.062 0.198 0.028 0.063 0.073 0.122 0.136 0.15 0.02 0.009 0.042 0.015 0.064 0.01s0.041 -0.023 0.041 -0.045a0.071 0.071 0 0 0 -0.015 -0.041c-0.031 -0.05 -0.068 -0.095 -0.095 -0.147 -0.027 -0.051 -0.045 -0.111 -0.034 -0.168 0.021 -0.106 0.143 -0.135 0.231 -0.162 0.084 -0.026 0.168 -0.074 0.259 -0.069 0.057 0.003 0.177 0.069 0.213 0.113a0.066 0.066 0 0 1 0.012 0.032c0.015 0.095 -0.054 0.18 -0.121 0.25 -0.012 0.012 -0.024 0.031 -0.014 0.045 0.004 0.005 0.009 0.008 0.014 0.009 0.048 0.018 0.103 0.002 0.144 -0.029 0.089 -0.068 0.12 -0.183 0.196 -0.263 0.063 -0.065 0.147 -0.108 0.232 -0.136 0.304 -0.1 0.32 0.14 0.374 0.274s0.135 0.041 0.136 0.004c0.003 -0.175 -0.109 -0.405 -0.389 -0.439z" fill="#f07371"/>
  <path d="M1.901 4a0.067 0.067 0 0 1 -0.058 -0.094c0.03 -0.068 0.087 -0.136 0.16 -0.189 0.112 -0.079 0.223 -0.094 0.335 -0.062l0.023 0.114c-0.072 -0.021 -0.202 0.002 -0.28 0.058 -0.056 0.04 -0.095 0.089 -0.114 0.13a0.069 0.069 0 0 1 -0.067 0.042z" fill="#f07371"/>
  <path d="M4.815 1.926c-0.009 -0.057 -0.053 -0.11 -0.111 -0.112 -0.028 -0.001 -0.06 0.014 -0.068 0.041 -0.004 0.012 -0.002 0.026 -0.001 0.038 0.004 0.094 -0.072 0.184 -0.164 0.197 -0.105 0.015 -0.182 -0.05 -0.261 -0.104 -0.076 -0.051 -0.17 -0.086 -0.257 -0.111 -0.233 -0.065 -0.433 -0.022 -0.585 0.171 -0.057 0.072 -0.111 0.15 -0.19 0.194 -0.125 0.069 -0.389 0.074 -0.467 -0.062 -0.102 -0.178 -0.106 -0.724 0.222 -0.662 0.101 0.019 0.176 0.107 0.184 0.172 0.004 0.041 -0.021 0.077 -0.054 0.105a0.067 0.067 0 0 0 -0.013 0.086 0.068 0.068 0 0 0 0.102 0.017c0.092 -0.079 0.107 -0.162 0.1 -0.223 -0.021 -0.192 -0.238 -0.301 -0.409 -0.306 -0.038 -0.001 -0.081 -0.013 -0.096 -0.049 -0.006 -0.015 -0.005 -0.032 -0.007 -0.048 -0.009 -0.115 -0.126 -0.239 -0.218 -0.299a0.068 0.068 0 0 0 -0.097 0.028 0.068 0.068 0 0 0 0.026 0.086c0.087 0.058 0.14 0.141 0.158 0.249 0.02 0.124 -0.007 0.251 -0.059 0.364a0.916 0.916 0 0 1 -0.095 0.162c-0.032 0.044 -0.077 0.073 -0.098 0.125 -0.002 0.006 -0.004 0.012 -0.003 0.018 0.003 0.011 0.017 0.014 0.029 0.015 0.033 0.001 0.067 -0.006 0.096 -0.02 -0.017 0.066 0.027 0.131 0.063 0.188s0.066 0.136 0.024 0.19c-0.002 0.002 -0.004 0.004 -0.006 0.007 -0.089 0.037 -0.174 0.088 -0.241 0.158 -0.115 0.121 -0.2 0.231 -0.368 0.285a0.679 0.679 0 0 1 -0.458 -0.016c-0.028 -0.011 -0.056 -0.024 -0.086 -0.023 -0.03 0.001 -0.062 0.022 -0.063 0.052 0 0.015 0.007 0.029 0.014 0.043 0.076 0.155 -0.064 0.256 -0.124 0.391a0.99 0.99 0 0 0 -0.085 0.402c0 0.151 0.052 0.261 0.238 0.452 0.085 0.086 0.195 0.138 0.288 0.168 0.029 0.009 0.048 -0.031 0.022 -0.047 -0.192 -0.122 -0.222 -0.231 -0.281 -0.342 -0.14 -0.269 0.013 -0.678 0.277 -0.886 0.102 -0.08 0.247 -0.074 0.37 -0.032 0.132 0.045 0.211 0.143 0.31 0.233 0.027 0.025 0.062 0.051 0.096 0.041 0.032 -0.009 0.047 -0.047 0.044 -0.079 -0.004 -0.032 -0.022 -0.061 -0.04 -0.089 -0.019 -0.03 -0.039 -0.06 -0.058 -0.09 -0.026 -0.04 -0.052 -0.081 -0.06 -0.128 -0.009 -0.051 0.036 -0.227 0.463 -0.336 0.072 -0.018 0.146 -0.01 0.219 0.01 0.098 0.028 0.168 0.1 0.251 0.156 0.023 0.016 0.048 0.032 0.076 0.033a0.078 0.078 0 0 0 0.076 -0.06c0.01 -0.048 -0.026 -0.09 -0.05 -0.133 -0.079 -0.14 0.013 -0.326 0.13 -0.415 0.104 -0.079 0.242 -0.108 0.372 -0.095 0.198 0.02 0.393 0.153 0.439 0.346 0.01 0.044 0.023 0.1 0.068 0.106 0.05 0.007 0.076 -0.059 0.071 -0.109s-0.021 -0.106 0.01 -0.146c0.014 -0.018 0.036 -0.028 0.057 -0.038 0.061 -0.027 0.124 -0.049 0.179 -0.087 0.054 -0.038 0.1 -0.096 0.104 -0.162 0 -0.008 -0.001 -0.017 -0.002 -0.026z" fill="#ea6363"/>
  <path d="M2.379 2.021c0.033 0.001 0.067 -0.006 0.096 -0.02 -0.017 0.066 0.027 0.131 0.063 0.188 0.027 0.042 0.063 0.117 0.023 0.194 0 0 0.06 -0.034 0.158 -0.062s0.193 -0.035 0.193 -0.035c-0.069 -0.014 -0.172 -0.054 -0.203 -0.108 -0.102 -0.178 -0.106 -0.724 0.222 -0.662 0.101 0.019 0.176 0.107 0.184 0.172 0.004 0.041 -0.021 0.077 -0.054 0.105a0.067 0.067 0 0 0 -0.013 0.086 0.068 0.068 0 0 0 0.102 0.017c0.092 -0.079 0.107 -0.162 0.1 -0.223 -0.021 -0.192 -0.238 -0.301 -0.409 -0.306 -0.038 -0.001 -0.081 -0.013 -0.096 -0.049 -0.006 -0.015 -0.005 -0.032 -0.007 -0.048 -0.009 -0.115 -0.126 -0.239 -0.218 -0.299a0.068 0.068 0 0 0 -0.097 0.028 0.068 0.068 0 0 0 0.026 0.086c0.087 0.058 0.14 0.141 0.158 0.249 0.02 0.124 -0.007 0.251 -0.059 0.364a0.916 0.916 0 0 1 -0.095 0.162c-0.032 0.044 -0.077 0.073 -0.098 0.125 -0.002 0.006 -0.004 0.012 -0.003 0.018 0.003 0.011 0.017 0.014 0.029 0.015z" fill="#f07371"/>
</svg>
